<mxfile host="www.draw.io" modified="2020-01-02T11:21:59.245Z" agent="Mozilla/5.0 (Windows NT 6.1; Win64; x64) AppleWebKit/537.36 (KHTML, like Gecko) Chrome/76.0.3809.100 Safari/537.36" etag="vVoJgwZ9meWGZ0YDqt4_" version="12.4.8" type="github">
  <diagram id="ja6-vwHsVLxebcOVcM97" name="第 1 页">
    <mxGraphModel dx="2130" dy="775" grid="1" gridSize="10" guides="1" tooltips="1" connect="1" arrows="1" fold="1" page="1" pageScale="1" pageWidth="827" pageHeight="1169" math="0" shadow="0">
      <root>
        <mxCell id="0"/>
        <mxCell id="1" parent="0"/>
        <mxCell id="xyLMxWqo0cwY5umEamFR-14" value="Y" style="edgeStyle=orthogonalEdgeStyle;rounded=0;orthogonalLoop=1;jettySize=auto;html=1;exitX=0.5;exitY=1;exitDx=0;exitDy=0;entryX=0.5;entryY=0;entryDx=0;entryDy=0;" parent="1" source="xyLMxWqo0cwY5umEamFR-18" target="xyLMxWqo0cwY5umEamFR-4" edge="1">
          <mxGeometry relative="1" as="geometry">
            <mxPoint x="270" y="250" as="sourcePoint"/>
          </mxGeometry>
        </mxCell>
        <mxCell id="xyLMxWqo0cwY5umEamFR-43" value="" style="edgeStyle=orthogonalEdgeStyle;rounded=0;orthogonalLoop=1;jettySize=auto;html=1;" parent="1" source="xyLMxWqo0cwY5umEamFR-4" target="xyLMxWqo0cwY5umEamFR-37" edge="1">
          <mxGeometry relative="1" as="geometry"/>
        </mxCell>
        <mxCell id="xyLMxWqo0cwY5umEamFR-4" value="从本地配置读取&lt;br&gt;XM_URL&lt;br&gt;AD_URL&lt;br&gt;Server_Url" style="rounded=0;whiteSpace=wrap;html=1;" parent="1" vertex="1">
          <mxGeometry x="210" y="300" width="120" height="60" as="geometry"/>
        </mxCell>
        <mxCell id="xyLMxWqo0cwY5umEamFR-16" style="edgeStyle=orthogonalEdgeStyle;rounded=0;orthogonalLoop=1;jettySize=auto;html=1;entryX=0.5;entryY=0;entryDx=0;entryDy=0;" parent="1" edge="1">
          <mxGeometry relative="1" as="geometry">
            <mxPoint x="270" y="190" as="targetPoint"/>
            <mxPoint x="270" y="80" as="sourcePoint"/>
          </mxGeometry>
        </mxCell>
        <mxCell id="lOSYg5_x7bbvLg1fTy4d-14" value="N" style="edgeStyle=orthogonalEdgeStyle;rounded=0;orthogonalLoop=1;jettySize=auto;html=1;exitX=1;exitY=0.5;exitDx=0;exitDy=0;" parent="1" source="xyLMxWqo0cwY5umEamFR-18" target="xyLMxWqo0cwY5umEamFR-23" edge="1">
          <mxGeometry relative="1" as="geometry">
            <mxPoint x="410" y="193" as="targetPoint"/>
          </mxGeometry>
        </mxCell>
        <mxCell id="xyLMxWqo0cwY5umEamFR-18" value="&lt;span style=&quot;white-space: normal&quot;&gt;检测网络&lt;/span&gt;" style="rhombus;whiteSpace=wrap;html=1;direction=east;" parent="1" vertex="1">
          <mxGeometry x="201" y="153" width="138" height="80" as="geometry"/>
        </mxCell>
        <mxCell id="xyLMxWqo0cwY5umEamFR-33" style="edgeStyle=orthogonalEdgeStyle;rounded=0;orthogonalLoop=1;jettySize=auto;html=1;" parent="1" source="xyLMxWqo0cwY5umEamFR-23" edge="1">
          <mxGeometry relative="1" as="geometry">
            <mxPoint x="270" y="153" as="targetPoint"/>
            <Array as="points">
              <mxPoint x="453" y="110"/>
              <mxPoint x="270" y="110"/>
            </Array>
          </mxGeometry>
        </mxCell>
        <mxCell id="xyLMxWqo0cwY5umEamFR-34" value="N" style="text;html=1;resizable=0;points=[];align=center;verticalAlign=middle;labelBackgroundColor=#ffffff;" parent="xyLMxWqo0cwY5umEamFR-33" vertex="1" connectable="0">
          <mxGeometry x="-0.7173" y="1" relative="1" as="geometry">
            <mxPoint as="offset"/>
          </mxGeometry>
        </mxCell>
        <mxCell id="lOSYg5_x7bbvLg1fTy4d-15" style="edgeStyle=orthogonalEdgeStyle;rounded=0;orthogonalLoop=1;jettySize=auto;html=1;entryX=0.5;entryY=0;entryDx=0;entryDy=0;" parent="1" source="xyLMxWqo0cwY5umEamFR-23" target="lOSYg5_x7bbvLg1fTy4d-10" edge="1">
          <mxGeometry relative="1" as="geometry"/>
        </mxCell>
        <mxCell id="lOSYg5_x7bbvLg1fTy4d-16" value="Y" style="text;html=1;resizable=0;points=[];align=center;verticalAlign=middle;labelBackgroundColor=#ffffff;" parent="lOSYg5_x7bbvLg1fTy4d-15" vertex="1" connectable="0">
          <mxGeometry x="-0.0093" y="1" relative="1" as="geometry">
            <mxPoint as="offset"/>
          </mxGeometry>
        </mxCell>
        <mxCell id="xyLMxWqo0cwY5umEamFR-23" value="失败次数是否超过指定次数" style="rhombus;whiteSpace=wrap;html=1;" parent="1" vertex="1">
          <mxGeometry x="413" y="153" width="80" height="80" as="geometry"/>
        </mxCell>
        <mxCell id="xyLMxWqo0cwY5umEamFR-45" value="Y" style="edgeStyle=orthogonalEdgeStyle;rounded=0;orthogonalLoop=1;jettySize=auto;html=1;" parent="1" source="xyLMxWqo0cwY5umEamFR-37" target="xyLMxWqo0cwY5umEamFR-44" edge="1">
          <mxGeometry relative="1" as="geometry"/>
        </mxCell>
        <mxCell id="xyLMxWqo0cwY5umEamFR-47" value="N" style="edgeStyle=orthogonalEdgeStyle;rounded=0;orthogonalLoop=1;jettySize=auto;html=1;" parent="1" source="xyLMxWqo0cwY5umEamFR-37" target="xyLMxWqo0cwY5umEamFR-51" edge="1">
          <mxGeometry relative="1" as="geometry">
            <mxPoint x="120" y="430" as="targetPoint"/>
          </mxGeometry>
        </mxCell>
        <mxCell id="xyLMxWqo0cwY5umEamFR-37" value="从Server_Url&lt;br&gt;读取XM_URL和&lt;br&gt;AD_Url" style="rhombus;whiteSpace=wrap;html=1;" parent="1" vertex="1">
          <mxGeometry x="195" y="390" width="150" height="80" as="geometry"/>
        </mxCell>
        <mxCell id="xyLMxWqo0cwY5umEamFR-50" style="edgeStyle=orthogonalEdgeStyle;rounded=0;orthogonalLoop=1;jettySize=auto;html=1;" parent="1" edge="1">
          <mxGeometry relative="1" as="geometry">
            <mxPoint x="270" y="530" as="targetPoint"/>
            <mxPoint x="45" y="470" as="sourcePoint"/>
            <Array as="points">
              <mxPoint x="45" y="550"/>
              <mxPoint x="270" y="550"/>
            </Array>
          </mxGeometry>
        </mxCell>
        <mxCell id="xyLMxWqo0cwY5umEamFR-55" value="Y" style="edgeStyle=orthogonalEdgeStyle;rounded=0;orthogonalLoop=1;jettySize=auto;html=1;" parent="1" source="xyLMxWqo0cwY5umEamFR-44" target="xyLMxWqo0cwY5umEamFR-54" edge="1">
          <mxGeometry relative="1" as="geometry"/>
        </mxCell>
        <mxCell id="xyLMxWqo0cwY5umEamFR-57" value="" style="edgeStyle=orthogonalEdgeStyle;rounded=0;orthogonalLoop=1;jettySize=auto;html=1;" parent="1" source="xyLMxWqo0cwY5umEamFR-44" target="xyLMxWqo0cwY5umEamFR-56" edge="1">
          <mxGeometry relative="1" as="geometry"/>
        </mxCell>
        <mxCell id="xyLMxWqo0cwY5umEamFR-44" value="访问服务器" style="rhombus;whiteSpace=wrap;html=1;" parent="1" vertex="1">
          <mxGeometry x="195" y="584" width="150" height="76" as="geometry"/>
        </mxCell>
        <mxCell id="xyLMxWqo0cwY5umEamFR-65" value="N" style="edgeStyle=orthogonalEdgeStyle;rounded=0;orthogonalLoop=1;jettySize=auto;html=1;" parent="1" source="xyLMxWqo0cwY5umEamFR-56" edge="1">
          <mxGeometry relative="1" as="geometry">
            <mxPoint x="270" y="550" as="targetPoint"/>
            <Array as="points">
              <mxPoint x="453" y="540"/>
              <mxPoint x="270" y="540"/>
            </Array>
          </mxGeometry>
        </mxCell>
        <mxCell id="lOSYg5_x7bbvLg1fTy4d-18" value="Y" style="edgeStyle=orthogonalEdgeStyle;rounded=0;orthogonalLoop=1;jettySize=auto;html=1;exitX=1;exitY=0.5;exitDx=0;exitDy=0;entryX=0;entryY=0.5;entryDx=0;entryDy=0;" parent="1" source="xyLMxWqo0cwY5umEamFR-56" edge="1">
          <mxGeometry relative="1" as="geometry">
            <mxPoint x="600.4285714285716" y="621.8571428571429" as="targetPoint"/>
          </mxGeometry>
        </mxCell>
        <mxCell id="xyLMxWqo0cwY5umEamFR-56" value="失败次数是否超过指定次数" style="rhombus;whiteSpace=wrap;html=1;" parent="1" vertex="1">
          <mxGeometry x="394.5" y="589" width="117" height="66" as="geometry"/>
        </mxCell>
        <mxCell id="xyLMxWqo0cwY5umEamFR-67" value="" style="edgeStyle=orthogonalEdgeStyle;rounded=0;orthogonalLoop=1;jettySize=auto;html=1;" parent="1" source="xyLMxWqo0cwY5umEamFR-54" target="xyLMxWqo0cwY5umEamFR-66" edge="1">
          <mxGeometry relative="1" as="geometry"/>
        </mxCell>
        <mxCell id="xyLMxWqo0cwY5umEamFR-72" value="" style="edgeStyle=orthogonalEdgeStyle;rounded=0;orthogonalLoop=1;jettySize=auto;html=1;" parent="1" source="xyLMxWqo0cwY5umEamFR-54" edge="1">
          <mxGeometry relative="1" as="geometry">
            <mxPoint x="270" y="959.5" as="targetPoint"/>
          </mxGeometry>
        </mxCell>
        <mxCell id="xyLMxWqo0cwY5umEamFR-54" value="登录" style="rhombus;whiteSpace=wrap;html=1;" parent="1" vertex="1">
          <mxGeometry x="195" y="849.5" width="150" height="76" as="geometry"/>
        </mxCell>
        <mxCell id="xyLMxWqo0cwY5umEamFR-70" value="N" style="edgeStyle=orthogonalEdgeStyle;rounded=0;orthogonalLoop=1;jettySize=auto;html=1;" parent="1" source="xyLMxWqo0cwY5umEamFR-66" edge="1">
          <mxGeometry relative="1" as="geometry">
            <mxPoint x="270" y="819.5" as="targetPoint"/>
            <Array as="points">
              <mxPoint x="453" y="819.5"/>
            </Array>
          </mxGeometry>
        </mxCell>
        <mxCell id="lOSYg5_x7bbvLg1fTy4d-25" value="Y" style="edgeStyle=orthogonalEdgeStyle;rounded=0;orthogonalLoop=1;jettySize=auto;html=1;entryX=0;entryY=0.5;entryDx=0;entryDy=0;" parent="1" source="xyLMxWqo0cwY5umEamFR-66" target="lOSYg5_x7bbvLg1fTy4d-24" edge="1">
          <mxGeometry relative="1" as="geometry"/>
        </mxCell>
        <mxCell id="xyLMxWqo0cwY5umEamFR-66" value="失败次数是否超过&lt;br&gt;指定次数" style="rhombus;whiteSpace=wrap;html=1;" parent="1" vertex="1">
          <mxGeometry x="387" y="857.5" width="133" height="60" as="geometry"/>
        </mxCell>
        <mxCell id="xyLMxWqo0cwY5umEamFR-51" value="&lt;span style=&quot;white-space: normal&quot;&gt;从本地配置读取&lt;/span&gt;&lt;br style=&quot;white-space: normal&quot;&gt;&lt;span style=&quot;white-space: normal&quot;&gt;XM_URL&lt;/span&gt;&lt;br style=&quot;white-space: normal&quot;&gt;&lt;span style=&quot;white-space: normal&quot;&gt;AD_URL&lt;/span&gt;" style="rounded=0;whiteSpace=wrap;html=1;" parent="1" vertex="1">
          <mxGeometry x="-10" y="400" width="120" height="60" as="geometry"/>
        </mxCell>
        <mxCell id="xyLMxWqo0cwY5umEamFR-79" value="" style="edgeStyle=orthogonalEdgeStyle;rounded=0;orthogonalLoop=1;jettySize=auto;html=1;" parent="1" source="xyLMxWqo0cwY5umEamFR-76" edge="1">
          <mxGeometry relative="1" as="geometry">
            <mxPoint x="270" y="1053.5" as="targetPoint"/>
          </mxGeometry>
        </mxCell>
        <mxCell id="xyLMxWqo0cwY5umEamFR-76" value="&lt;span style=&quot;white-space: normal&quot;&gt;加载Launcher&lt;/span&gt;" style="rounded=0;whiteSpace=wrap;html=1;" parent="1" vertex="1">
          <mxGeometry x="210" y="959.5" width="120" height="60" as="geometry"/>
        </mxCell>
        <mxCell id="lOSYg5_x7bbvLg1fTy4d-8" value="结束" style="rounded=1;whiteSpace=wrap;html=1;" parent="1" vertex="1">
          <mxGeometry x="210" y="1053.5" width="120" height="60" as="geometry"/>
        </mxCell>
        <mxCell id="lOSYg5_x7bbvLg1fTy4d-9" value="开始" style="rounded=1;whiteSpace=wrap;html=1;" parent="1" vertex="1">
          <mxGeometry x="210" y="26" width="120" height="60" as="geometry"/>
        </mxCell>
        <mxCell id="lOSYg5_x7bbvLg1fTy4d-21" style="edgeStyle=orthogonalEdgeStyle;rounded=0;orthogonalLoop=1;jettySize=auto;html=1;entryX=1;entryY=0.5;entryDx=0;entryDy=0;" parent="1" source="lOSYg5_x7bbvLg1fTy4d-10" target="lOSYg5_x7bbvLg1fTy4d-8" edge="1">
          <mxGeometry relative="1" as="geometry">
            <Array as="points">
              <mxPoint x="960" y="300"/>
              <mxPoint x="960" y="1083"/>
            </Array>
          </mxGeometry>
        </mxCell>
        <mxCell id="lOSYg5_x7bbvLg1fTy4d-10" value="无网络连接, 请检查网络" style="rounded=0;whiteSpace=wrap;html=1;" parent="1" vertex="1">
          <mxGeometry x="900" y="270" width="120" height="60" as="geometry"/>
        </mxCell>
        <mxCell id="lOSYg5_x7bbvLg1fTy4d-28" style="edgeStyle=orthogonalEdgeStyle;rounded=0;orthogonalLoop=1;jettySize=auto;html=1;exitX=1;exitY=0.5;exitDx=0;exitDy=0;" parent="1" source="lOSYg5_x7bbvLg1fTy4d-24" edge="1">
          <mxGeometry relative="1" as="geometry">
            <mxPoint x="960" y="888" as="targetPoint"/>
          </mxGeometry>
        </mxCell>
        <mxCell id="lOSYg5_x7bbvLg1fTy4d-24" value="登录失败" style="rounded=0;whiteSpace=wrap;html=1;" parent="1" vertex="1">
          <mxGeometry x="600" y="857.5" width="120" height="60" as="geometry"/>
        </mxCell>
        <mxCell id="zVOG0tgEgoleahJsuM49-3" value="Y" style="edgeStyle=orthogonalEdgeStyle;rounded=0;orthogonalLoop=1;jettySize=auto;html=1;" parent="1" source="zVOG0tgEgoleahJsuM49-1" edge="1">
          <mxGeometry relative="1" as="geometry">
            <mxPoint x="760" y="614.9999999999998" as="targetPoint"/>
            <Array as="points">
              <mxPoint x="760" y="622"/>
            </Array>
          </mxGeometry>
        </mxCell>
        <mxCell id="zVOG0tgEgoleahJsuM49-10" value="N" style="edgeStyle=orthogonalEdgeStyle;rounded=0;orthogonalLoop=1;jettySize=auto;html=1;exitX=0.5;exitY=1;exitDx=0;exitDy=0;entryX=0;entryY=0.5;entryDx=0;entryDy=0;" parent="1" source="zVOG0tgEgoleahJsuM49-1" target="zVOG0tgEgoleahJsuM49-7" edge="1">
          <mxGeometry relative="1" as="geometry"/>
        </mxCell>
        <mxCell id="zVOG0tgEgoleahJsuM49-1" value="服务器地址是本地配置？" style="rhombus;whiteSpace=wrap;html=1;" parent="1" vertex="1">
          <mxGeometry x="596" y="582" width="80" height="80" as="geometry"/>
        </mxCell>
        <mxCell id="zVOG0tgEgoleahJsuM49-6" value="" style="edgeStyle=orthogonalEdgeStyle;rounded=0;orthogonalLoop=1;jettySize=auto;html=1;" parent="1" source="zVOG0tgEgoleahJsuM49-4" edge="1">
          <mxGeometry relative="1" as="geometry">
            <mxPoint x="960" y="614.9999999999998" as="targetPoint"/>
            <Array as="points">
              <mxPoint x="960" y="622"/>
            </Array>
          </mxGeometry>
        </mxCell>
        <mxCell id="zVOG0tgEgoleahJsuM49-4" value="显示非台基网络，&lt;br&gt;登录失败" style="rounded=0;whiteSpace=wrap;html=1;" parent="1" vertex="1">
          <mxGeometry x="760" y="592" width="120" height="60" as="geometry"/>
        </mxCell>
        <mxCell id="zVOG0tgEgoleahJsuM49-9" value="" style="edgeStyle=orthogonalEdgeStyle;rounded=0;orthogonalLoop=1;jettySize=auto;html=1;" parent="1" source="zVOG0tgEgoleahJsuM49-7" edge="1">
          <mxGeometry relative="1" as="geometry">
            <mxPoint x="960" y="710" as="targetPoint"/>
          </mxGeometry>
        </mxCell>
        <mxCell id="zVOG0tgEgoleahJsuM49-7" value="服务器无响应，&lt;br&gt;请稍候60秒" style="rounded=0;whiteSpace=wrap;html=1;" parent="1" vertex="1">
          <mxGeometry x="766" y="680" width="120" height="60" as="geometry"/>
        </mxCell>
      </root>
    </mxGraphModel>
  </diagram>
</mxfile>
